<?xml version="1.0" standalone="no"?>
<!DOCTYPE svg PUBLIC "-//W3C//DTD SVG 20010904//EN"
 "http://www.w3.org/TR/2001/REC-SVG-20010904/DTD/svg10.dtd">
<svg version="1.0" xmlns="http://www.w3.org/2000/svg"
 width="223.000000pt" height="223.000000pt" viewBox="0 0 223.000000 223.000000"
 preserveAspectRatio="xMidYMid meet">
<metadata>
Created by potrace 1.14, written by Peter Selinger 2001-2017
</metadata>
<g transform="translate(0.000000,223.000000) scale(0.100000,-0.100000)"
fill="#000000" stroke="none">
<path d="M1056 2180 c-76 -55 -173 -91 -186 -70 -17 27 -137 -11 -216 -69 -79
-57 -114 -100 -114 -143 0 -21 -9 -55 -20 -75 -22 -41 -25 -89 -10 -142 6 -23
6 -47 -2 -76 -9 -32 -9 -57 0 -97 10 -48 32 -222 48 -373 l6 -60 -32 38 c-17
20 -36 35 -41 32 -15 -10 -11 -72 5 -78 8 -3 20 -25 26 -49 18 -72 40 -126 54
-131 7 -3 40 -3 73 0 l60 6 -3 63 c-2 35 -9 75 -14 89 -16 41 -13 57 9 50 10
-3 24 1 31 10 7 9 22 20 31 26 16 8 18 6 13 -19 -7 -34 17 -86 45 -102 51 -27
105 -6 131 52 l17 39 26 -32 c33 -43 57 -34 57 21 0 54 -37 94 -78 86 -15 -4
-49 -2 -76 3 -64 12 -137 -7 -177 -45 l-29 -28 0 41 c0 83 8 98 58 116 58 21
131 22 178 2 42 -17 64 -11 64 20 0 30 -17 42 -79 57 -51 11 -93 7 -177 -17
-20 -6 -22 -3 -22 42 -1 26 -7 78 -13 115 -11 59 -10 70 5 93 34 51 56 54 377
49 260 -5 304 -8 378 -27 49 -13 88 -29 95 -39 7 -12 7 -37 -2 -88 -7 -39 -12
-88 -12 -110 0 -22 -3 -40 -6 -40 -3 0 -31 7 -62 16 -89 26 -212 0 -212 -45 0
-34 23 -43 66 -25 28 12 57 15 104 11 86 -6 118 -22 126 -61 8 -44 7 -156 -1
-247 l-7 -76 63 -6 c79 -8 89 2 114 102 9 39 23 75 31 82 16 13 18 57 4 79 -5
8 -10 11 -10 5 0 -5 -14 -26 -31 -45 l-30 -35 6 30 c3 17 8 39 10 50 31 143
39 197 40 295 1 63 7 131 14 150 15 48 14 130 -4 160 -8 14 -25 48 -38 75 -14
28 -47 72 -75 99 l-51 49 24 25 c28 27 33 70 10 78 -8 3 -26 -3 -40 -15 -31
-23 -58 -17 -108 25 -44 37 -102 64 -137 64 -18 0 -60 16 -94 35 -85 47 -107
46 -190 -15z m-210 -1041 c10 -17 -13 -36 -27 -22 -12 12 -4 33 11 33 5 0 12
-5 16 -11z"/>
<path d="M1355 1178 c-22 -5 -54 -6 -72 -3 -53 9 -94 -49 -79 -110 7 -27 46
-36 46 -12 0 8 9 22 19 31 18 17 19 16 31 -18 23 -70 100 -88 152 -36 25 26
29 37 26 70 -2 22 -1 40 1 40 3 0 20 -14 38 -32 28 -27 33 -29 39 -15 19 51
-110 105 -201 85z m13 -50 c-3 -7 -11 -13 -18 -13 -7 0 -15 6 -17 13 -3 7 4
12 17 12 13 0 20 -5 18 -12z"/>
<path d="M1040 910 c-9 -16 -8 -20 5 -20 8 0 15 9 15 20 0 11 -2 20 -5 20 -2
0 -9 -9 -15 -20z"/>
<path d="M1190 911 c0 -12 6 -21 15 -21 8 0 15 4 15 9 0 5 -7 14 -15 21 -13
10 -15 9 -15 -9z"/>
<path d="M394 798 c12 -73 27 -531 18 -537 -36 -23 -122 -197 -122 -248 0 -11
149 -13 825 -13 813 0 825 0 825 20 0 31 -39 121 -78 180 l-37 55 8 170 c8
201 5 231 -12 114 -7 -47 -16 -90 -19 -96 -5 -7 -25 -7 -62 -1 -30 5 -65 8
-77 8 -12 0 -25 5 -28 10 -4 6 -11 8 -16 5 -5 -4 -9 -2 -9 3 0 5 -12 10 -27
10 -25 2 -60 7 -73 12 -3 1 -8 2 -12 1 -4 0 -28 4 -55 10 -26 5 -59 12 -73 14
-14 3 -34 7 -45 9 -11 3 -26 5 -33 5 -7 1 -11 5 -8 9 2 4 -11 6 -30 4 -21 -3
-34 0 -34 7 0 7 -4 10 -9 6 -5 -3 -28 1 -50 9 -22 7 -42 10 -43 5 -2 -5 -16
-2 -32 6 -16 9 -35 14 -43 11 -7 -3 -15 -1 -18 3 -3 5 -14 7 -24 4 -11 -3 -34
3 -51 13 -27 17 -32 17 -41 4 -8 -11 -12 -12 -15 -3 -3 7 -11 10 -19 7 -7 -3
-24 1 -37 10 -22 15 -27 16 -49 16 -5 0 -7 5 -4 11 4 6 -2 5 -13 -2 -17 -10
-23 -10 -37 5 -11 10 -21 13 -29 8 -14 -11 -76 5 -76 20 0 7 -5 6 -15 -2 -11
-9 -15 -9 -15 -1 0 9 -5 9 -20 1 -16 -9 -20 -8 -20 5 0 9 -5 13 -10 10 -6 -4
-17 -1 -25 5 -8 7 -20 10 -27 7 -7 -2 -21 0 -32 5 -13 7 -16 7 -12 -1 4 -7 1
-9 -8 -5 -9 3 -18 25 -21 52 -8 61 -12 72 -25 72 -7 0 -9 -13 -6 -32z m786
-254 c0 -3 -5 -14 -10 -25 -6 -10 -7 -19 -2 -19 4 0 16 -6 26 -13 16 -12 17
-16 5 -35 -11 -18 -11 -26 -1 -42 28 -46 2 -74 -71 -76 -45 -1 -51 2 -68 30
-36 59 -18 129 34 129 15 0 27 4 27 10 0 16 31 47 47 47 7 0 13 -3 13 -6z"/>
</g>
</svg>
