<svg width="552" height="134" viewBox="0 0 552 134" fill="none" xmlns="http://www.w3.org/2000/svg">
<path d="M25.8 56.8611H0.300049L24.3001 0.111084H40.55L25.8 56.8611ZM66.3001 56.8611H40.8L64.8 0.111084H81.05L66.3001 56.8611Z" fill="white"/>
<path d="M122.82 12.5611C122.527 14.2144 121.833 15.5878 120.74 16.6811C119.673 17.7478 118.367 18.5211 116.82 19.0011C118.127 19.2144 119.193 19.8544 120.02 20.9211C120.847 21.9611 121.26 23.2011 121.26 24.6411C121.26 25.0678 121.22 25.4811 121.14 25.8811C120.9 27.2944 120.313 28.5744 119.38 29.7211C118.473 30.8411 117.273 31.7344 115.78 32.4011C114.287 33.0411 112.607 33.3611 110.74 33.3611H100.34L105.3 5.48109H115.3C117.807 5.48109 119.7 6.01442 120.98 7.08109C122.287 8.14776 122.94 9.53442 122.94 11.2411C122.94 11.6678 122.9 12.1078 122.82 12.5611ZM119.06 13.0011C119.113 12.7611 119.14 12.4278 119.14 12.0011C119.14 10.8544 118.74 9.96109 117.94 9.32109C117.14 8.68109 115.98 8.36109 114.46 8.36109H108.42L106.78 17.6011H112.9C114.58 17.6011 115.967 17.2011 117.06 16.4011C118.153 15.5744 118.82 14.4411 119.06 13.0011ZM117.54 25.5211C117.62 25.1478 117.66 24.8011 117.66 24.4811C117.66 23.2544 117.207 22.2811 116.3 21.5611C115.393 20.8411 114.153 20.4811 112.58 20.4811H106.26L104.5 30.4811H110.94C112.727 30.4811 114.207 30.0411 115.38 29.1611C116.553 28.2811 117.273 27.0678 117.54 25.5211Z" fill="white"/>
<path d="M139.071 11.0811C140.911 11.0811 142.498 11.4411 143.831 12.1611C145.191 12.8544 146.218 13.8411 146.911 15.1211C147.631 16.3744 147.991 17.8144 147.991 19.4411C147.991 20.0011 147.925 20.6811 147.791 21.4811C147.685 22.1744 147.511 22.8944 147.271 23.6411H129.751C129.698 24.1744 129.671 24.5611 129.671 24.8011C129.671 26.6411 130.218 28.0811 131.311 29.1211C132.431 30.1344 133.885 30.6411 135.671 30.6411C137.245 30.6411 138.618 30.2811 139.791 29.5611C140.991 28.8144 141.898 27.8278 142.511 26.6011H146.431C145.471 28.7078 143.991 30.4278 141.991 31.7611C140.018 33.0678 137.725 33.7211 135.111 33.7211C132.365 33.7211 130.151 32.9344 128.471 31.3611C126.818 29.7611 125.991 27.5878 125.991 24.8411C125.991 24.0678 126.071 23.2411 126.231 22.3611C126.631 20.0944 127.445 18.1078 128.671 16.4011C129.898 14.6944 131.405 13.3878 133.191 12.4811C135.005 11.5478 136.965 11.0811 139.071 11.0811ZM144.111 21.0011C144.191 20.4678 144.231 19.9744 144.231 19.5211C144.231 17.8144 143.685 16.4944 142.591 15.5611C141.525 14.6278 140.125 14.1611 138.391 14.1611C136.525 14.1611 134.831 14.7744 133.311 16.0011C131.791 17.2011 130.765 18.8678 130.231 21.0011H144.111Z" fill="white"/>
<path d="M151.836 22.3211C152.236 20.0811 153.036 18.1211 154.236 16.4411C155.463 14.7344 156.943 13.4144 158.676 12.4811C160.436 11.5478 162.303 11.0811 164.276 11.0811C166.196 11.0811 167.783 11.4944 169.036 12.3211C170.289 13.1478 171.156 14.1878 171.636 15.4411L172.356 11.4411H176.036L172.156 33.3611H168.476L169.236 29.2811C168.276 30.5611 167.009 31.6278 165.436 32.4811C163.863 33.3078 162.129 33.7211 160.236 33.7211C158.529 33.7211 157.023 33.3611 155.716 32.6411C154.409 31.8944 153.396 30.8411 152.676 29.4811C151.956 28.1211 151.596 26.5478 151.596 24.7611C151.596 23.9611 151.676 23.1478 151.836 22.3211ZM170.436 22.3611C170.543 21.8011 170.596 21.2011 170.596 20.5611C170.596 18.6144 170.009 17.0811 168.836 15.9611C167.689 14.8144 166.223 14.2411 164.436 14.2411C163.076 14.2411 161.769 14.5611 160.516 15.2011C159.289 15.8411 158.236 16.7744 157.356 18.0011C156.476 19.2278 155.889 20.6678 155.596 22.3211C155.489 22.8811 155.436 23.4944 155.436 24.1611C155.436 26.1344 156.009 27.6944 157.156 28.8411C158.303 29.9611 159.769 30.5211 161.556 30.5211C162.916 30.5211 164.209 30.2011 165.436 29.5611C166.689 28.8944 167.756 27.9478 168.636 26.7211C169.543 25.4678 170.143 24.0144 170.436 22.3611Z" fill="white"/>
<path d="M202.427 11.4411L198.547 33.3611H194.907L195.467 30.1611C194.587 31.2811 193.467 32.1478 192.107 32.7611C190.747 33.3744 189.334 33.6811 187.867 33.6811C185.574 33.6811 183.734 33.0678 182.347 31.8411C180.987 30.5878 180.307 28.8011 180.307 26.4811C180.307 25.8944 180.374 25.1611 180.507 24.2811L182.787 11.4411H186.387L184.227 23.8011C184.121 24.3611 184.067 24.9478 184.067 25.5611C184.067 27.1878 184.507 28.4278 185.387 29.2811C186.294 30.1078 187.547 30.5211 189.147 30.5211C191.067 30.5211 192.694 29.9211 194.027 28.7211C195.387 27.5211 196.254 25.7744 196.627 23.4811V23.6011L198.787 11.4411H202.427Z" fill="white"/>
<path d="M211.013 27.3611C210.933 27.7611 210.893 28.1078 210.893 28.4011C210.893 29.0678 211.093 29.5478 211.493 29.8411C211.92 30.1344 212.6 30.2811 213.533 30.2811H216.213L215.653 33.3611H212.373C210.64 33.3611 209.333 33.0278 208.453 32.3611C207.6 31.6944 207.173 30.6011 207.173 29.0811C207.173 28.4944 207.227 27.9211 207.333 27.3611L209.613 14.4411H206.813L207.333 11.4411H210.173L211.133 5.92109H214.813L213.853 11.4411H219.533L219.013 14.4411H213.293L211.013 27.3611Z" fill="white"/>
<path d="M227.223 7.88109C226.637 7.88109 226.143 7.69442 225.743 7.32109C225.37 6.92109 225.183 6.42776 225.183 5.84109C225.183 5.04109 225.477 4.36109 226.063 3.80109C226.65 3.21442 227.33 2.92109 228.103 2.92109C228.717 2.92109 229.21 3.10776 229.583 3.48109C229.957 3.85442 230.143 4.34776 230.143 4.96109C230.143 5.76109 229.85 6.45442 229.263 7.04109C228.677 7.60109 227.997 7.88109 227.223 7.88109ZM228.383 11.4411L224.503 33.3611H220.863L224.743 11.4411H228.383Z" fill="white"/>
<path d="M245.067 5.84109C243.441 5.84109 242.241 6.16109 241.467 6.80109C240.721 7.41442 240.227 8.44109 239.987 9.88109L239.707 11.4411H244.307L243.787 14.4411H239.187L235.827 33.3611H232.187L235.507 14.4411H232.707L233.227 11.4411H236.027L236.307 9.88109C236.761 7.42776 237.721 5.64109 239.187 4.52109C240.654 3.37442 242.787 2.80109 245.587 2.80109L245.067 5.84109Z" fill="white"/>
<path d="M268.791 11.4411L264.911 33.3611H261.271L261.831 30.1611C260.951 31.2811 259.831 32.1478 258.471 32.7611C257.111 33.3744 255.698 33.6811 254.231 33.6811C251.938 33.6811 250.098 33.0678 248.711 31.8411C247.351 30.5878 246.671 28.8011 246.671 26.4811C246.671 25.8944 246.738 25.1611 246.871 24.2811L249.151 11.4411H252.751L250.591 23.8011C250.485 24.3611 250.431 24.9478 250.431 25.5611C250.431 27.1878 250.871 28.4278 251.751 29.2811C252.658 30.1078 253.911 30.5211 255.511 30.5211C257.431 30.5211 259.058 29.9211 260.391 28.7211C261.751 27.5211 262.618 25.7744 262.991 23.4811V23.6011L265.151 11.4411H268.791Z" fill="white"/>
<path d="M280.737 3.76109L275.497 33.3611H271.857L277.097 3.76109H280.737Z" fill="white"/>
<path d="M190.465 58.7211C189.265 58.7211 188.279 58.3744 187.505 57.6811C186.759 56.9611 186.385 56.0811 186.385 55.0411C186.385 53.9744 186.759 53.0944 187.505 52.4011C188.279 51.6811 189.265 51.3211 190.465 51.3211C191.639 51.3211 192.599 51.6811 193.345 52.4011C194.119 53.0944 194.505 53.9744 194.505 55.0411C194.505 56.0811 194.119 56.9611 193.345 57.6811C192.599 58.3744 191.639 58.7211 190.465 58.7211ZM193.865 61.0411V83.3611H187.025V61.0411H193.865Z" fill="white"/>
<path d="M213.222 60.8011C215.836 60.8011 217.916 61.6544 219.462 63.3611C221.036 65.0411 221.822 67.3611 221.822 70.3211V83.3611H215.022V71.2411C215.022 69.7478 214.636 68.5878 213.862 67.7611C213.089 66.9344 212.049 66.5211 210.742 66.5211C209.436 66.5211 208.396 66.9344 207.622 67.7611C206.849 68.5878 206.462 69.7478 206.462 71.2411V83.3611H199.622V61.0411H206.462V64.0011C207.156 63.0144 208.089 62.2411 209.262 61.6811C210.436 61.0944 211.756 60.8011 213.222 60.8011Z" fill="white"/>
<path d="M236.455 83.6811C234.509 83.6811 232.775 83.3478 231.255 82.6811C229.735 82.0144 228.535 81.1078 227.655 79.9611C226.775 78.7878 226.282 77.4811 226.175 76.0411H232.935C233.015 76.8144 233.375 77.4411 234.015 77.9211C234.655 78.4011 235.442 78.6411 236.375 78.6411C237.229 78.6411 237.882 78.4811 238.335 78.1611C238.815 77.8144 239.055 77.3744 239.055 76.8411C239.055 76.2011 238.722 75.7344 238.055 75.4411C237.389 75.1211 236.309 74.7744 234.815 74.4011C233.215 74.0278 231.882 73.6411 230.815 73.2411C229.749 72.8144 228.829 72.1611 228.055 71.2811C227.282 70.3744 226.895 69.1611 226.895 67.6411C226.895 66.3611 227.242 65.2011 227.935 64.1611C228.655 63.0944 229.695 62.2544 231.055 61.6411C232.442 61.0278 234.082 60.7211 235.975 60.7211C238.775 60.7211 240.975 61.4144 242.575 62.8011C244.202 64.1878 245.135 66.0278 245.375 68.3211H239.055C238.949 67.5478 238.602 66.9344 238.015 66.4811C237.455 66.0278 236.709 65.8011 235.775 65.8011C234.975 65.8011 234.362 65.9611 233.935 66.2811C233.509 66.5744 233.295 66.9878 233.295 67.5211C233.295 68.1611 233.629 68.6411 234.295 68.9611C234.989 69.2811 236.055 69.6011 237.495 69.9211C239.149 70.3478 240.495 70.7744 241.535 71.2011C242.575 71.6011 243.482 72.2678 244.255 73.2011C245.055 74.1078 245.469 75.3344 245.495 76.8811C245.495 78.1878 245.122 79.3611 244.375 80.4011C243.655 81.4144 242.602 82.2144 241.215 82.8011C239.855 83.3878 238.269 83.6811 236.455 83.6811Z" fill="white"/>
<path d="M253.92 58.7211C252.72 58.7211 251.733 58.3744 250.96 57.6811C250.213 56.9611 249.84 56.0811 249.84 55.0411C249.84 53.9744 250.213 53.0944 250.96 52.4011C251.733 51.6811 252.72 51.3211 253.92 51.3211C255.093 51.3211 256.053 51.6811 256.8 52.4011C257.573 53.0944 257.96 53.9744 257.96 55.0411C257.96 56.0811 257.573 56.9611 256.8 57.6811C256.053 58.3744 255.093 58.7211 253.92 58.7211ZM257.32 61.0411V83.3611H250.48V61.0411H257.32Z" fill="white"/>
<path d="M261.717 72.1611C261.717 69.8678 262.144 67.8544 262.997 66.1211C263.877 64.3878 265.064 63.0544 266.557 62.1211C268.05 61.1878 269.717 60.7211 271.557 60.7211C273.024 60.7211 274.357 61.0278 275.557 61.6411C276.784 62.2544 277.744 63.0811 278.437 64.1211V53.7611H285.277V83.3611H278.437V80.1611C277.797 81.2278 276.877 82.0811 275.677 82.7211C274.504 83.3611 273.13 83.6811 271.557 83.6811C269.717 83.6811 268.05 83.2144 266.557 82.2811C265.064 81.3211 263.877 79.9744 262.997 78.2411C262.144 76.4811 261.717 74.4544 261.717 72.1611ZM278.437 72.2011C278.437 70.4944 277.957 69.1478 276.997 68.1611C276.064 67.1744 274.917 66.6811 273.557 66.6811C272.197 66.6811 271.037 67.1744 270.077 68.1611C269.144 69.1211 268.677 70.4544 268.677 72.1611C268.677 73.8678 269.144 75.2278 270.077 76.2411C271.037 77.2278 272.197 77.7211 273.557 77.7211C274.917 77.7211 276.064 77.2278 276.997 76.2411C277.957 75.2544 278.437 73.9078 278.437 72.2011Z" fill="white"/>
<path d="M312.065 71.8411C312.065 72.4811 312.025 73.1478 311.945 73.8411H296.465C296.572 75.2278 297.012 76.2944 297.785 77.0411C298.585 77.7611 299.559 78.1211 300.705 78.1211C302.412 78.1211 303.599 77.4011 304.265 75.9611H311.545C311.172 77.4278 310.492 78.7478 309.505 79.9211C308.545 81.0944 307.332 82.0144 305.865 82.6811C304.399 83.3478 302.759 83.6811 300.945 83.6811C298.759 83.6811 296.812 83.2144 295.105 82.2811C293.399 81.3478 292.065 80.0144 291.105 78.2811C290.145 76.5478 289.665 74.5211 289.665 72.2011C289.665 69.8811 290.132 67.8544 291.065 66.1211C292.025 64.3878 293.359 63.0544 295.065 62.1211C296.772 61.1878 298.732 60.7211 300.945 60.7211C303.105 60.7211 305.025 61.1744 306.705 62.0811C308.385 62.9878 309.692 64.2811 310.625 65.9611C311.585 67.6411 312.065 69.6011 312.065 71.8411ZM305.065 70.0411C305.065 68.8678 304.665 67.9344 303.865 67.2411C303.065 66.5478 302.065 66.2011 300.865 66.2011C299.719 66.2011 298.745 66.5344 297.945 67.2011C297.172 67.8678 296.692 68.8144 296.505 70.0411H305.065Z" fill="white"/>
<path d="M327.178 72.3211C327.178 70.0811 327.631 68.1211 328.538 66.4411C329.445 64.7344 330.685 63.4144 332.258 62.4811C333.858 61.5478 335.631 61.0811 337.578 61.0811C339.498 61.0811 341.165 61.4944 342.578 62.3211C343.991 63.1478 345.045 64.1878 345.738 65.4411V61.4411H349.418V83.3611H345.738V79.2811C345.018 80.5611 343.938 81.6278 342.498 82.4811C341.085 83.3078 339.431 83.7211 337.538 83.7211C335.591 83.7211 333.831 83.2411 332.258 82.2811C330.685 81.3211 329.445 79.9744 328.538 78.2411C327.631 76.5078 327.178 74.5344 327.178 72.3211ZM345.738 72.3611C345.738 70.7078 345.405 69.2678 344.738 68.0411C344.071 66.8144 343.165 65.8811 342.018 65.2411C340.898 64.5744 339.658 64.2411 338.298 64.2411C336.938 64.2411 335.698 64.5611 334.578 65.2011C333.458 65.8411 332.565 66.7744 331.898 68.0011C331.231 69.2278 330.898 70.6678 330.898 72.3211C330.898 74.0011 331.231 75.4678 331.898 76.7211C332.565 77.9478 333.458 78.8944 334.578 79.5611C335.698 80.2011 336.938 80.5211 338.298 80.5211C339.658 80.5211 340.898 80.2011 342.018 79.5611C343.165 78.8944 344.071 77.9478 344.738 76.7211C345.405 75.4678 345.738 74.0144 345.738 72.3611Z" fill="white"/>
<path d="M367.049 61.0411C369.716 61.0411 371.876 61.8544 373.529 63.4811C375.182 65.0811 376.009 67.4011 376.009 70.4411V83.3611H372.409V70.9611C372.409 68.7744 371.862 67.1078 370.769 65.9611C369.676 64.7878 368.182 64.2011 366.289 64.2011C364.369 64.2011 362.836 64.8011 361.689 66.0011C360.569 67.2011 360.009 68.9478 360.009 71.2411V83.3611H356.369V61.4411H360.009V64.5611C360.729 63.4411 361.702 62.5744 362.929 61.9611C364.182 61.3478 365.556 61.0411 367.049 61.0411Z" fill="white"/>
<path d="M381.395 72.3211C381.395 70.0811 381.848 68.1211 382.755 66.4411C383.662 64.7344 384.902 63.4144 386.475 62.4811C388.075 61.5478 389.862 61.0811 391.835 61.0811C393.542 61.0811 395.128 61.4811 396.595 62.2811C398.062 63.0544 399.182 64.0811 399.955 65.3611V53.7611H403.635V83.3611H399.955V79.2411C399.235 80.5478 398.168 81.6278 396.755 82.4811C395.342 83.3078 393.688 83.7211 391.795 83.7211C389.848 83.7211 388.075 83.2411 386.475 82.2811C384.902 81.3211 383.662 79.9744 382.755 78.2411C381.848 76.5078 381.395 74.5344 381.395 72.3211ZM399.955 72.3611C399.955 70.7078 399.622 69.2678 398.955 68.0411C398.288 66.8144 397.382 65.8811 396.235 65.2411C395.115 64.5744 393.875 64.2411 392.515 64.2411C391.155 64.2411 389.915 64.5611 388.795 65.2011C387.675 65.8411 386.782 66.7744 386.115 68.0011C385.448 69.2278 385.115 70.6678 385.115 72.3211C385.115 74.0011 385.448 75.4678 386.115 76.7211C386.782 77.9478 387.675 78.8944 388.795 79.5611C389.915 80.2011 391.155 80.5211 392.515 80.5211C393.875 80.5211 395.115 80.2011 396.235 79.5611C397.382 78.8944 398.288 77.9478 398.955 76.7211C399.622 75.4678 399.955 74.0144 399.955 72.3611Z" fill="white"/>
<path d="M431.61 83.6811C429.424 83.6811 427.45 83.2144 425.69 82.2811C423.957 81.3478 422.584 80.0144 421.57 78.2811C420.584 76.5478 420.09 74.5211 420.09 72.2011C420.09 69.9078 420.597 67.8944 421.61 66.1611C422.624 64.4011 424.01 63.0544 425.77 62.1211C427.53 61.1878 429.504 60.7211 431.69 60.7211C433.877 60.7211 435.85 61.1878 437.61 62.1211C439.37 63.0544 440.757 64.4011 441.77 66.1611C442.784 67.8944 443.29 69.9078 443.29 72.2011C443.29 74.4944 442.77 76.5211 441.73 78.2811C440.717 80.0144 439.317 81.3478 437.53 82.2811C435.77 83.2144 433.797 83.6811 431.61 83.6811ZM431.61 77.7611C432.917 77.7611 434.024 77.2811 434.93 76.3211C435.864 75.3611 436.33 73.9878 436.33 72.2011C436.33 70.4144 435.877 69.0411 434.97 68.0811C434.09 67.1211 432.997 66.6411 431.69 66.6411C430.357 66.6411 429.25 67.1211 428.37 68.0811C427.49 69.0144 427.05 70.3878 427.05 72.2011C427.05 73.9878 427.477 75.3611 428.33 76.3211C429.21 77.2811 430.304 77.7611 431.61 77.7611Z" fill="white"/>
<path d="M469.759 61.0411V83.3611H462.919V80.3211C462.226 81.3078 461.279 82.1078 460.079 82.7211C458.906 83.3078 457.599 83.6011 456.159 83.6011C454.452 83.6011 452.946 83.2278 451.639 82.4811C450.332 81.7078 449.319 80.6011 448.599 79.1611C447.879 77.7211 447.519 76.0278 447.519 74.0811V61.0411H454.319V73.1611C454.319 74.6544 454.706 75.8144 455.479 76.6411C456.252 77.4678 457.292 77.8811 458.599 77.8811C459.932 77.8811 460.986 77.4678 461.759 76.6411C462.532 75.8144 462.919 74.6544 462.919 73.1611V61.0411H469.759Z" fill="white"/>
<path d="M487.912 77.5611V83.3611H484.432C481.952 83.3611 480.019 82.7611 478.632 81.5611C477.246 80.3344 476.552 78.3478 476.552 75.6011V66.7211H473.832V61.0411H476.552V55.6011H483.392V61.0411H487.872V66.7211H483.392V75.6811C483.392 76.3478 483.552 76.8278 483.872 77.1211C484.192 77.4144 484.726 77.5611 485.472 77.5611H487.912Z" fill="white"/>
<path d="M104.26 107.881C103.567 107.881 102.98 107.641 102.5 107.161C102.02 106.681 101.78 106.094 101.78 105.401C101.78 104.708 102.02 104.121 102.5 103.641C102.98 103.161 103.567 102.921 104.26 102.921C104.927 102.921 105.487 103.161 105.94 103.641C106.42 104.121 106.66 104.708 106.66 105.401C106.66 106.094 106.42 106.681 105.94 107.161C105.487 107.641 104.927 107.881 104.26 107.881ZM106.02 111.441V133.361H102.38V111.441H106.02Z" fill="white"/>
<path d="M120.784 133.721C119.104 133.721 117.597 133.441 116.264 132.881C114.93 132.294 113.877 131.494 113.104 130.481C112.33 129.441 111.904 128.254 111.824 126.921H115.584C115.69 128.014 116.197 128.908 117.104 129.601C118.037 130.294 119.25 130.641 120.744 130.641C122.13 130.641 123.224 130.334 124.024 129.721C124.824 129.108 125.224 128.334 125.224 127.401C125.224 126.441 124.797 125.734 123.944 125.281C123.09 124.801 121.77 124.334 119.984 123.881C118.357 123.454 117.024 123.028 115.984 122.601C114.97 122.148 114.09 121.494 113.344 120.641C112.624 119.761 112.264 118.614 112.264 117.201C112.264 116.081 112.597 115.054 113.264 114.121C113.93 113.188 114.877 112.454 116.104 111.921C117.33 111.361 118.73 111.081 120.304 111.081C122.73 111.081 124.69 111.694 126.184 112.921C127.677 114.148 128.477 115.828 128.584 117.961H124.944C124.864 116.814 124.397 115.894 123.544 115.201C122.717 114.508 121.597 114.161 120.184 114.161C118.877 114.161 117.837 114.441 117.064 115.001C116.29 115.561 115.904 116.294 115.904 117.201C115.904 117.921 116.13 118.521 116.584 119.001C117.064 119.454 117.65 119.828 118.344 120.121C119.064 120.388 120.05 120.694 121.304 121.041C122.877 121.468 124.157 121.894 125.144 122.321C126.13 122.721 126.97 123.334 127.664 124.161C128.384 124.988 128.757 126.068 128.784 127.401C128.784 128.601 128.45 129.681 127.784 130.641C127.117 131.601 126.17 132.361 124.944 132.921C123.744 133.454 122.357 133.721 120.784 133.721Z" fill="white"/>
<path d="M144.826 122.321C144.826 120.081 145.28 118.121 146.186 116.441C147.093 114.734 148.333 113.414 149.906 112.481C151.506 111.548 153.28 111.081 155.226 111.081C157.146 111.081 158.813 111.494 160.226 112.321C161.64 113.148 162.693 114.188 163.386 115.441V111.441H167.066V133.361H163.386V129.281C162.666 130.561 161.586 131.628 160.146 132.481C158.733 133.308 157.08 133.721 155.186 133.721C153.24 133.721 151.48 133.241 149.906 132.281C148.333 131.321 147.093 129.974 146.186 128.241C145.28 126.508 144.826 124.534 144.826 122.321ZM163.386 122.361C163.386 120.708 163.053 119.268 162.386 118.041C161.72 116.814 160.813 115.881 159.666 115.241C158.546 114.574 157.306 114.241 155.946 114.241C154.586 114.241 153.346 114.561 152.226 115.201C151.106 115.841 150.213 116.774 149.546 118.001C148.88 119.228 148.546 120.668 148.546 122.321C148.546 124.001 148.88 125.468 149.546 126.721C150.213 127.948 151.106 128.894 152.226 129.561C153.346 130.201 154.586 130.521 155.946 130.521C157.306 130.521 158.546 130.201 159.666 129.561C160.813 128.894 161.72 127.948 162.386 126.721C163.053 125.468 163.386 124.014 163.386 122.361Z" fill="white"/>
<path d="M215.322 110.801C217.722 110.801 219.588 111.441 220.922 112.721C222.282 113.974 222.962 115.734 222.962 118.001C222.962 118.694 222.882 119.468 222.722 120.321L220.402 133.361H213.602L215.762 121.241C215.815 120.974 215.842 120.614 215.842 120.161C215.842 119.041 215.522 118.188 214.882 117.601C214.268 117.014 213.402 116.721 212.282 116.721C210.948 116.721 209.828 117.121 208.922 117.921C208.015 118.694 207.442 119.801 207.202 121.241L205.042 133.361H198.242L200.402 121.241C200.455 120.974 200.482 120.614 200.482 120.161C200.482 119.041 200.162 118.188 199.522 117.601C198.908 117.014 198.042 116.721 196.922 116.721C195.588 116.721 194.468 117.121 193.562 117.921C192.655 118.694 192.082 119.801 191.842 121.241V121.041L189.682 133.361H182.842L186.762 111.041H193.602L193.122 113.881C193.975 112.921 195.002 112.174 196.202 111.641C197.428 111.081 198.748 110.801 200.162 110.801C201.868 110.801 203.308 111.161 204.482 111.881C205.682 112.601 206.535 113.641 207.042 115.001C208.028 113.748 209.255 112.734 210.722 111.961C212.188 111.188 213.722 110.801 215.322 110.801Z" fill="white"/>
<path d="M251.945 111.041L248.025 133.361H241.185L241.705 130.321C240.825 131.308 239.745 132.108 238.465 132.721C237.212 133.308 235.865 133.601 234.425 133.601C232.185 133.601 230.425 132.974 229.145 131.721C227.865 130.441 227.225 128.668 227.225 126.401C227.225 125.548 227.292 124.774 227.425 124.081L229.745 111.041H236.545L234.425 123.161C234.345 123.588 234.305 124.001 234.305 124.401C234.305 125.521 234.612 126.388 235.225 127.001C235.865 127.588 236.745 127.881 237.865 127.881C239.145 127.881 240.225 127.508 241.105 126.761C242.012 125.988 242.612 124.894 242.905 123.481L245.105 111.041H251.945Z" fill="white"/>
<path d="M263.018 133.681C261.258 133.681 259.672 133.401 258.258 132.841C256.872 132.281 255.778 131.508 254.978 130.521C254.178 129.508 253.778 128.348 253.778 127.041C253.778 126.854 253.805 126.521 253.858 126.041H260.458C260.405 126.868 260.645 127.534 261.178 128.041C261.738 128.521 262.525 128.761 263.538 128.761C264.392 128.761 265.098 128.601 265.658 128.281C266.218 127.961 266.499 127.508 266.499 126.921C266.499 126.361 266.192 125.921 265.578 125.601C264.992 125.254 264.005 124.841 262.618 124.361C261.178 123.881 259.965 123.414 258.978 122.961C258.018 122.481 257.192 121.801 256.499 120.921C255.805 120.041 255.458 118.934 255.458 117.601C255.458 116.294 255.845 115.121 256.618 114.081C257.392 113.014 258.472 112.188 259.858 111.601C261.272 111.014 262.898 110.721 264.738 110.721C266.578 110.721 268.178 111.028 269.538 111.641C270.898 112.228 271.952 113.054 272.698 114.121C273.445 115.188 273.818 116.388 273.818 117.721L273.779 118.321H267.578C267.632 117.521 267.392 116.881 266.858 116.401C266.325 115.921 265.565 115.681 264.578 115.681C263.805 115.681 263.165 115.841 262.658 116.161C262.178 116.481 261.939 116.921 261.939 117.481C261.939 118.068 262.258 118.561 262.898 118.961C263.565 119.334 264.592 119.761 265.978 120.241C267.418 120.721 268.605 121.201 269.538 121.681C270.498 122.134 271.312 122.788 271.978 123.641C272.672 124.468 273.018 125.508 273.018 126.761C273.018 128.201 272.578 129.441 271.698 130.481C270.845 131.521 269.658 132.321 268.138 132.881C266.645 133.414 264.939 133.681 263.018 133.681Z" fill="white"/>
<path d="M286.123 125.681C286.096 125.814 286.083 125.988 286.083 126.201C286.083 126.681 286.216 127.028 286.483 127.241C286.776 127.454 287.243 127.561 287.883 127.561H290.323L289.283 133.361H285.803C281.323 133.361 279.083 131.481 279.083 127.721C279.083 127.161 279.15 126.454 279.283 125.601L280.883 116.721H278.163L279.163 111.041H281.883L282.843 105.601H289.683L288.723 111.041H293.203L292.203 116.721H287.723L286.123 125.681Z" fill="white"/>
<path d="M297.053 133.681C295.986 133.681 295.133 133.401 294.493 132.841C293.88 132.254 293.573 131.521 293.573 130.641C293.573 129.414 294.026 128.374 294.933 127.521C295.866 126.668 297.013 126.241 298.373 126.241C299.413 126.241 300.24 126.534 300.853 127.121C301.467 127.681 301.773 128.414 301.773 129.321C301.773 130.521 301.306 131.548 300.373 132.401C299.466 133.254 298.36 133.681 297.053 133.681Z" fill="white"/>
<path d="M99.3 69.8411H175.272V71.8411H99.3V69.8411Z" fill="white"/>
<path d="M499.319 69.8411H551.7V71.8411H499.319V69.8411Z" fill="white"/>
</svg>
