<svg width="20" height="31" viewBox="0 0 20 31" fill="none" xmlns="http://www.w3.org/2000/svg">
<path d="M5.17854 30.5555C7.83997 30.5555 9.99997 28.3155 9.99997 25.5556V20.5556H5.17854C2.51712 20.5556 0.357117 22.7956 0.357117 25.5556C0.357117 28.3155 2.51712 30.5555 5.17854 30.5555Z" fill="#0ACF83"/>
<path d="M0.357117 15.5555C0.357117 12.7955 2.51712 10.5555 5.17854 10.5555H9.99997V20.5556H5.17854C2.51712 20.5556 0.357117 18.3155 0.357117 15.5555Z" fill="#A259FF"/>
<path d="M0.357117 5.55554C0.357117 2.79554 2.51712 0.555542 5.17854 0.555542H9.99997V10.5555H5.17854C2.51712 10.5555 0.357117 8.31554 0.357117 5.55554Z" fill="#F24E1E"/>
<path d="M9.99997 0.555542H14.8214C17.4828 0.555542 19.6428 2.79554 19.6428 5.55554C19.6428 8.31554 17.4828 10.5555 14.8214 10.5555L9.99997 10.5555V0.555542Z" fill="#FF7262"/>
<path d="M19.6428 15.5555C19.6428 18.3155 17.4828 20.5555 14.8214 20.5555C12.16 20.5555 9.99995 18.3155 9.99995 15.5555C9.99995 12.7955 12.16 10.5555 14.8214 10.5555C17.4828 10.5555 19.6428 12.7955 19.6428 15.5555Z" fill="#1ABCFE"/>
</svg>
