<svg width="313" height="55" viewBox="0 0 313 55" fill="none" xmlns="http://www.w3.org/2000/svg">
<path fill-rule="evenodd" clip-rule="evenodd" d="M0.253378 54.3061C0.253378 54.3061 0.253293 54.3063 0.384131 54.3796C0.455519 54.5115 0.455612 54.5115 0.455612 54.5115L0.462957 54.5075L0.485443 54.4954L0.573996 54.4481C0.651883 54.4067 0.766774 54.3459 0.91452 54.2687C1.21002 54.1143 1.6369 53.8944 2.16194 53.6324C3.21218 53.1085 4.65447 52.4166 6.22332 51.7448C7.79273 51.0728 9.48584 50.4221 11.0384 49.9792C12.5965 49.5347 13.992 49.306 14.9758 49.4598L15.0221 49.1634C13.9695 48.9989 12.52 49.2446 10.9561 49.6907C9.38648 50.1384 7.68044 50.7945 6.10523 51.469C4.52947 52.1438 3.08168 52.8383 2.028 53.364C1.50109 53.6269 1.07255 53.8477 0.775615 54.0028C0.768812 54.0063 0.762079 54.0099 0.755415 54.0133C0.800484 53.9298 0.851203 53.8352 0.906977 53.7304C1.15123 53.2713 1.4925 52.6158 1.8809 51.8295C2.65741 50.2574 3.62357 48.1598 4.37911 46.0624C5.13279 43.9702 5.68431 41.8586 5.61579 40.2659C5.58148 39.4686 5.39104 38.7809 4.97202 38.2931C4.54832 37.8 3.91105 37.5342 3.03584 37.5427L3.03876 37.8427C3.84841 37.8348 4.39185 38.0782 4.74446 38.4886C5.10175 38.9045 5.28319 39.5149 5.31606 40.2788C5.38189 41.8088 4.8489 43.8731 4.09687 45.9607C3.34669 48.0433 2.38592 50.1297 1.61193 51.6966C1.22508 52.4798 0.885215 53.1326 0.642134 53.5894C0.520599 53.8179 0.423275 53.9973 0.356389 54.1195C0.322946 54.1806 0.297115 54.2274 0.279672 54.2588L0.259898 54.2944L0.253378 54.3061ZM0.384131 54.3796L0.455612 54.5115L0 54.758L0.253378 54.3061L0.384131 54.3796Z" fill="white"/>
<path fill-rule="evenodd" clip-rule="evenodd" d="M38.6467 18.0222C25.7632 24.966 14.2653 34.723 7.31441 45.9742L7.56964 46.1319C14.486 34.9366 25.9387 25.2122 38.7891 18.2862C51.6394 11.3603 65.8736 7.24019 78.3434 7.24019V6.94019C65.8131 6.94019 51.5302 11.0783 38.6467 18.0222Z" fill="white"/>
<path d="M91.3954 1.39419V13.9402H89.7574V8.25219H83.3674V13.9402H81.7294V1.39419H83.3674V6.90219H89.7574V1.39419H91.3954Z" fill="white"/>
<path d="M102.692 8.63019C102.692 8.94219 102.674 9.27219 102.638 9.62019H94.7543C94.8143 10.5922 95.1443 11.3542 95.7443 11.9062C96.3563 12.4462 97.0943 12.7162 97.9583 12.7162C98.6663 12.7162 99.2543 12.5542 99.7223 12.2302C100.202 11.8942 100.538 11.4502 100.73 10.8982H102.494C102.23 11.8462 101.702 12.6202 100.91 13.2202C100.118 13.8082 99.1343 14.1022 97.9583 14.1022C97.0223 14.1022 96.1823 13.8922 95.4383 13.4722C94.7063 13.0522 94.1303 12.4582 93.7103 11.6902C93.2903 10.9102 93.0803 10.0102 93.0803 8.99019C93.0803 7.97019 93.2843 7.07619 93.6923 6.30819C94.1003 5.54019 94.6703 4.95219 95.4023 4.54419C96.1463 4.12419 96.9983 3.91419 97.9583 3.91419C98.8943 3.91419 99.7223 4.11819 100.442 4.52619C101.162 4.93419 101.714 5.49819 102.098 6.21819C102.494 6.92619 102.692 7.73019 102.692 8.63019ZM101 8.28819C101 7.66419 100.862 7.13019 100.586 6.68619C100.31 6.23019 99.9323 5.88819 99.4523 5.66019C98.9843 5.42019 98.4623 5.30019 97.8863 5.30019C97.0583 5.30019 96.3503 5.56419 95.7623 6.09219C95.1863 6.62019 94.8563 7.35219 94.7723 8.28819H101Z" fill="white"/>
<path d="M105.992 0.620188V13.9402H104.354V0.620188H105.992Z" fill="white"/>
<path d="M109.922 0.620188V13.9402H108.284V0.620188H109.922Z" fill="white"/>
<path d="M116.516 14.1022C115.592 14.1022 114.752 13.8922 113.996 13.4722C113.252 13.0522 112.664 12.4582 112.232 11.6902C111.812 10.9102 111.602 10.0102 111.602 8.99019C111.602 7.98219 111.818 7.09419 112.25 6.32619C112.694 5.54619 113.294 4.95219 114.05 4.54419C114.806 4.12419 115.652 3.91419 116.588 3.91419C117.524 3.91419 118.37 4.12419 119.126 4.54419C119.882 4.95219 120.476 5.54019 120.908 6.30819C121.352 7.07619 121.574 7.97019 121.574 8.99019C121.574 10.0102 121.346 10.9102 120.89 11.6902C120.446 12.4582 119.84 13.0522 119.072 13.4722C118.304 13.8922 117.452 14.1022 116.516 14.1022ZM116.516 12.6622C117.104 12.6622 117.656 12.5242 118.172 12.2482C118.688 11.9722 119.102 11.5582 119.414 11.0062C119.738 10.4542 119.9 9.78219 119.9 8.99019C119.9 8.19819 119.744 7.52619 119.432 6.97419C119.12 6.42219 118.712 6.01419 118.208 5.75019C117.704 5.47419 117.158 5.33619 116.57 5.33619C115.97 5.33619 115.418 5.47419 114.914 5.75019C114.422 6.01419 114.026 6.42219 113.726 6.97419C113.426 7.52619 113.276 8.19819 113.276 8.99019C113.276 9.79419 113.42 10.4722 113.708 11.0242C114.008 11.5762 114.404 11.9902 114.896 12.2662C115.388 12.5302 115.928 12.6622 116.516 12.6622Z" fill="white"/>
<path d="M125.351 1.39419L125.153 10.3942H123.785L123.587 1.39419H125.351ZM124.541 14.0482C124.229 14.0482 123.965 13.9402 123.749 13.7242C123.533 13.5082 123.425 13.2442 123.425 12.9322C123.425 12.6202 123.533 12.3562 123.749 12.1402C123.965 11.9242 124.229 11.8162 124.541 11.8162C124.841 11.8162 125.093 11.9242 125.297 12.1402C125.513 12.3562 125.621 12.6202 125.621 12.9322C125.621 13.2442 125.513 13.5082 125.297 13.7242C125.093 13.9402 124.841 14.0482 124.541 14.0482Z" fill="white"/>
<path d="M134.026 1.39419V13.9402H132.388V1.39419H134.026Z" fill="white"/>
<path d="M148.032 11.1502H142.56L141.552 13.9402H139.824L144.36 1.46619H146.25L150.768 13.9402H149.04L148.032 11.1502ZM147.564 9.81819L145.296 3.48219L143.028 9.81819H147.564Z" fill="white"/>
<path d="M164.107 3.89619C164.875 3.89619 165.559 4.05819 166.159 4.38219C166.759 4.69419 167.233 5.16819 167.581 5.80419C167.929 6.44019 168.103 7.21419 168.103 8.12619V13.9402H166.483V8.36019C166.483 7.37619 166.237 6.62619 165.745 6.11019C165.265 5.58219 164.611 5.31819 163.783 5.31819C162.931 5.31819 162.253 5.59419 161.749 6.14619C161.245 6.68619 160.993 7.47219 160.993 8.50419V13.9402H159.373V8.36019C159.373 7.37619 159.127 6.62619 158.635 6.11019C158.155 5.58219 157.501 5.31819 156.673 5.31819C155.821 5.31819 155.143 5.59419 154.639 6.14619C154.135 6.68619 153.883 7.47219 153.883 8.50419V13.9402H152.245V4.07619H153.883V5.49819C154.207 4.98219 154.639 4.58619 155.179 4.31019C155.731 4.03419 156.337 3.89619 156.997 3.89619C157.825 3.89619 158.557 4.08219 159.193 4.45419C159.829 4.82619 160.303 5.37219 160.615 6.09219C160.891 5.39619 161.347 4.85619 161.983 4.47219C162.619 4.08819 163.327 3.89619 164.107 3.89619Z" fill="white"/>
<path d="M178.567 14.0662C177.739 14.0662 176.995 13.9222 176.335 13.6342C175.687 13.3342 175.177 12.9262 174.805 12.4102C174.433 11.8822 174.241 11.2762 174.229 10.5922H175.975C176.035 11.1802 176.275 11.6782 176.695 12.0862C177.127 12.4822 177.751 12.6802 178.567 12.6802C179.347 12.6802 179.959 12.4882 180.403 12.1042C180.859 11.7082 181.087 11.2042 181.087 10.5922C181.087 10.1122 180.955 9.72219 180.691 9.42219C180.427 9.12219 180.097 8.89419 179.701 8.73819C179.305 8.58219 178.771 8.41419 178.099 8.23419C177.271 8.01819 176.605 7.80219 176.101 7.58619C175.609 7.37019 175.183 7.03419 174.823 6.57819C174.475 6.11019 174.301 5.48619 174.301 4.70619C174.301 4.02219 174.475 3.41619 174.823 2.88819C175.171 2.36019 175.657 1.95219 176.281 1.66419C176.917 1.37619 177.643 1.23219 178.459 1.23219C179.635 1.23219 180.595 1.52619 181.339 2.11419C182.095 2.70219 182.521 3.48219 182.617 4.45419H180.817C180.757 3.97419 180.505 3.55419 180.061 3.19419C179.617 2.82219 179.029 2.63619 178.297 2.63619C177.613 2.63619 177.055 2.81619 176.623 3.17619C176.191 3.52419 175.975 4.01619 175.975 4.65219C175.975 5.10819 176.101 5.48019 176.353 5.76819C176.617 6.05619 176.935 6.27819 177.307 6.43419C177.691 6.57819 178.225 6.74619 178.909 6.93819C179.737 7.16619 180.403 7.39419 180.907 7.62219C181.411 7.83819 181.843 8.18019 182.203 8.64819C182.563 9.10419 182.743 9.72819 182.743 10.5202C182.743 11.1322 182.581 11.7082 182.257 12.2482C181.933 12.7882 181.453 13.2262 180.817 13.5622C180.181 13.8982 179.431 14.0662 178.567 14.0662Z" fill="white"/>
<path d="M189.549 3.89619C190.293 3.89619 190.965 4.05819 191.565 4.38219C192.165 4.69419 192.633 5.16819 192.969 5.80419C193.317 6.44019 193.491 7.21419 193.491 8.12619V13.9402H191.871V8.36019C191.871 7.37619 191.625 6.62619 191.133 6.11019C190.641 5.58219 189.969 5.31819 189.117 5.31819C188.253 5.31819 187.563 5.58819 187.047 6.12819C186.543 6.66819 186.291 7.45419 186.291 8.48619V13.9402H184.653V0.620188H186.291V5.48019C186.615 4.97619 187.059 4.58619 187.623 4.31019C188.199 4.03419 188.841 3.89619 189.549 3.89619Z" fill="white"/>
<path d="M204.415 4.07619V13.9402H202.777V12.4822C202.465 12.9862 202.027 13.3822 201.463 13.6702C200.911 13.9462 200.299 14.0842 199.627 14.0842C198.859 14.0842 198.169 13.9282 197.557 13.6162C196.945 13.2922 196.459 12.8122 196.099 12.1762C195.751 11.5402 195.577 10.7662 195.577 9.85419V4.07619H197.197V9.63819C197.197 10.6102 197.443 11.3602 197.935 11.8882C198.427 12.4042 199.099 12.6622 199.951 12.6622C200.827 12.6622 201.517 12.3922 202.021 11.8522C202.525 11.3122 202.777 10.5262 202.777 9.49419V4.07619H204.415Z" fill="white"/>
<path d="M208.319 5.91219C208.655 5.32419 209.147 4.84419 209.795 4.47219C210.443 4.10019 211.181 3.91419 212.009 3.91419C212.897 3.91419 213.695 4.12419 214.403 4.54419C215.111 4.96419 215.669 5.55819 216.077 6.32619C216.485 7.08219 216.689 7.96419 216.689 8.97219C216.689 9.96819 216.485 10.8562 216.077 11.6362C215.669 12.4162 215.105 13.0222 214.385 13.4542C213.677 13.8862 212.885 14.1022 212.009 14.1022C211.157 14.1022 210.407 13.9162 209.759 13.5442C209.123 13.1722 208.643 12.6982 208.319 12.1222V13.9402H206.681V0.620188H208.319V5.91219ZM215.015 8.97219C215.015 8.22819 214.865 7.58019 214.565 7.02819C214.265 6.47619 213.857 6.05619 213.341 5.76819C212.837 5.48019 212.279 5.33619 211.667 5.33619C211.067 5.33619 210.509 5.48619 209.993 5.78619C209.489 6.07419 209.081 6.50019 208.769 7.06419C208.469 7.61619 208.319 8.25819 208.319 8.99019C208.319 9.73419 208.469 10.3882 208.769 10.9522C209.081 11.5042 209.489 11.9302 209.993 12.2302C210.509 12.5182 211.067 12.6622 211.667 12.6622C212.279 12.6622 212.837 12.5182 213.341 12.2302C213.857 11.9302 214.265 11.5042 214.565 10.9522C214.865 10.3882 215.015 9.72819 215.015 8.97219Z" fill="white"/>
<path d="M223.241 3.89619C223.985 3.89619 224.657 4.05819 225.257 4.38219C225.857 4.69419 226.325 5.16819 226.661 5.80419C227.009 6.44019 227.183 7.21419 227.183 8.12619V13.9402H225.563V8.36019C225.563 7.37619 225.317 6.62619 224.825 6.11019C224.333 5.58219 223.661 5.31819 222.809 5.31819C221.945 5.31819 221.255 5.58819 220.739 6.12819C220.235 6.66819 219.983 7.45419 219.983 8.48619V13.9402H218.345V0.620188H219.983V5.48019C220.307 4.97619 220.751 4.58619 221.315 4.31019C221.891 4.03419 222.533 3.89619 223.241 3.89619Z" fill="white"/>
<path d="M228.746 8.97219C228.746 7.96419 228.95 7.08219 229.358 6.32619C229.766 5.55819 230.324 4.96419 231.032 4.54419C231.752 4.12419 232.55 3.91419 233.426 3.91419C234.29 3.91419 235.04 4.10019 235.676 4.47219C236.312 4.84419 236.786 5.31219 237.098 5.87619V4.07619H238.754V13.9402H237.098V12.1042C236.774 12.6802 236.288 13.1602 235.64 13.5442C235.004 13.9162 234.26 14.1022 233.408 14.1022C232.532 14.1022 231.74 13.8862 231.032 13.4542C230.324 13.0222 229.766 12.4162 229.358 11.6362C228.95 10.8562 228.746 9.96819 228.746 8.97219ZM237.098 8.99019C237.098 8.24619 236.948 7.59819 236.648 7.04619C236.348 6.49419 235.94 6.07419 235.424 5.78619C234.92 5.48619 234.362 5.33619 233.75 5.33619C233.138 5.33619 232.58 5.48019 232.076 5.76819C231.572 6.05619 231.17 6.47619 230.87 7.02819C230.57 7.58019 230.42 8.22819 230.42 8.97219C230.42 9.72819 230.57 10.3882 230.87 10.9522C231.17 11.5042 231.572 11.9302 232.076 12.2302C232.58 12.5182 233.138 12.6622 233.75 12.6622C234.362 12.6622 234.92 12.5182 235.424 12.2302C235.94 11.9302 236.348 11.5042 236.648 10.9522C236.948 10.3882 237.098 9.73419 237.098 8.99019Z" fill="white"/>
<path d="M252.884 3.89619C253.652 3.89619 254.336 4.05819 254.936 4.38219C255.536 4.69419 256.01 5.16819 256.358 5.80419C256.706 6.44019 256.88 7.21419 256.88 8.12619V13.9402H255.26V8.36019C255.26 7.37619 255.014 6.62619 254.522 6.11019C254.042 5.58219 253.388 5.31819 252.56 5.31819C251.708 5.31819 251.03 5.59419 250.526 6.14619C250.022 6.68619 249.77 7.47219 249.77 8.50419V13.9402H248.15V8.36019C248.15 7.37619 247.904 6.62619 247.412 6.11019C246.932 5.58219 246.278 5.31819 245.45 5.31819C244.598 5.31819 243.92 5.59419 243.416 6.14619C242.912 6.68619 242.66 7.47219 242.66 8.50419V13.9402H241.022V4.07619H242.66V5.49819C242.984 4.98219 243.416 4.58619 243.956 4.31019C244.508 4.03419 245.114 3.89619 245.774 3.89619C246.602 3.89619 247.334 4.08219 247.97 4.45419C248.606 4.82619 249.08 5.37219 249.392 6.09219C249.668 5.39619 250.124 4.85619 250.76 4.47219C251.396 4.08819 252.104 3.89619 252.884 3.89619Z" fill="white"/>
<path d="M271.754 5.06619C271.754 6.11019 271.394 6.98019 270.674 7.67619C269.966 8.36019 268.88 8.70219 267.416 8.70219H265.004V13.9402H263.366V1.39419H267.416C268.832 1.39419 269.906 1.73619 270.638 2.42019C271.382 3.10419 271.754 3.98619 271.754 5.06619ZM267.416 7.35219C268.328 7.35219 269 7.15419 269.432 6.75819C269.864 6.36219 270.08 5.79819 270.08 5.06619C270.08 3.51819 269.192 2.74419 267.416 2.74419H265.004V7.35219H267.416Z" fill="white"/>
<path d="M272.678 8.97219C272.678 7.96419 272.882 7.08219 273.29 6.32619C273.698 5.55819 274.256 4.96419 274.964 4.54419C275.684 4.12419 276.482 3.91419 277.358 3.91419C278.222 3.91419 278.972 4.10019 279.608 4.47219C280.244 4.84419 280.718 5.31219 281.03 5.87619V4.07619H282.686V13.9402H281.03V12.1042C280.706 12.6802 280.22 13.1602 279.572 13.5442C278.936 13.9162 278.192 14.1022 277.34 14.1022C276.464 14.1022 275.672 13.8862 274.964 13.4542C274.256 13.0222 273.698 12.4162 273.29 11.6362C272.882 10.8562 272.678 9.96819 272.678 8.97219ZM281.03 8.99019C281.03 8.24619 280.88 7.59819 280.58 7.04619C280.28 6.49419 279.872 6.07419 279.356 5.78619C278.852 5.48619 278.294 5.33619 277.682 5.33619C277.07 5.33619 276.512 5.48019 276.008 5.76819C275.504 6.05619 275.102 6.47619 274.802 7.02819C274.502 7.58019 274.352 8.22819 274.352 8.97219C274.352 9.72819 274.502 10.3882 274.802 10.9522C275.102 11.5042 275.504 11.9302 276.008 12.2302C276.512 12.5182 277.07 12.6622 277.682 12.6622C278.294 12.6622 278.852 12.5182 279.356 12.2302C279.872 11.9302 280.28 11.5042 280.58 10.9522C280.88 10.3882 281.03 9.73419 281.03 8.99019Z" fill="white"/>
<path d="M286.592 5.67819C286.88 5.11419 287.288 4.67619 287.816 4.36419C288.356 4.05219 289.01 3.89619 289.778 3.89619V5.58819H289.346C287.51 5.58819 286.592 6.58419 286.592 8.57619V13.9402H284.954V4.07619H286.592V5.67819Z" fill="white"/>
<path d="M296.677 13.9402L292.807 9.58419V13.9402H291.169V0.620188H292.807V8.45019L296.605 4.07619H298.891L294.247 8.99019L298.909 13.9402H296.677Z" fill="white"/>
<path d="M304.828 3.89619C305.572 3.89619 306.244 4.05819 306.844 4.38219C307.444 4.69419 307.913 5.16819 308.249 5.80419C308.596 6.44019 308.771 7.21419 308.771 8.12619V13.9402H307.15V8.36019C307.15 7.37619 306.905 6.62619 306.413 6.11019C305.921 5.58219 305.248 5.31819 304.396 5.31819C303.532 5.31819 302.842 5.58819 302.327 6.12819C301.823 6.66819 301.57 7.45419 301.57 8.48619V13.9402H299.932V0.620188H301.57V5.48019C301.895 4.97619 302.339 4.58619 302.902 4.31019C303.478 4.03419 304.12 3.89619 304.828 3.89619Z" fill="white"/>
<path d="M311.792 2.47419C311.48 2.47419 311.216 2.36619 311 2.15019C310.784 1.93419 310.676 1.67019 310.676 1.35819C310.676 1.04619 310.784 0.782188 311 0.566188C311.216 0.350188 311.48 0.242188 311.792 0.242188C312.092 0.242188 312.344 0.350188 312.548 0.566188C312.764 0.782188 312.872 1.04619 312.872 1.35819C312.872 1.67019 312.764 1.93419 312.548 2.15019C312.344 2.36619 312.092 2.47419 311.792 2.47419ZM312.584 4.07619V13.9402H310.946V4.07619H312.584Z" fill="white"/>
</svg>
