<svg width="32" height="19" viewBox="0 0 32 19" fill="none" xmlns="http://www.w3.org/2000/svg">
<path d="M7.78536 5.08789H13.6532V5.55203H8.32325V9.04532H13.3354V9.50947H8.32325V13.3448H13.7143V13.8089H7.78536V5.08789ZM14.1789 5.08789H14.8023L17.5651 8.92318L20.389 5.08789L24.23 0.216187L17.9196 9.32625L21.1714 13.8089H20.5235L17.5651 9.72932L14.5945 13.8089H13.9588L17.235 9.32625L14.1789 5.08789ZM21.4036 5.55203V5.08789H28.0905V5.55203H25.0099V13.8089H24.472V5.55203H21.4036Z" fill="white"/>
<path d="M0.444458 5.08788H1.11681L10.3882 18.895L6.55679 13.8089L1.00679 5.74746L0.982343 13.8089H0.444458V5.08788Z" fill="white"/>
<path d="M28.0363 13.2047C28.1476 13.2047 28.2287 13.1199 28.2287 13.0104C28.2287 12.9009 28.1476 12.8162 28.0363 12.8162C27.9265 12.8162 27.844 12.9009 27.844 13.0104C27.844 13.1199 27.9265 13.2047 28.0363 13.2047ZM28.5649 12.6936C28.5649 13.017 28.7991 13.2282 29.1405 13.2282C29.5042 13.2282 29.724 13.0104 29.724 12.6324V11.3013H29.431V12.6311C29.431 12.841 29.325 12.9531 29.1379 12.9531C28.9704 12.9531 28.8566 12.8488 28.8527 12.6936H28.5649ZM30.1073 12.6767C30.1283 13.013 30.4095 13.2282 30.8282 13.2282C31.2756 13.2282 31.5556 13.0026 31.5556 12.6428C31.5556 12.3599 31.396 12.2035 31.0087 12.1135L30.8007 12.0627C30.5547 12.0053 30.4553 11.9284 30.4553 11.7941C30.4553 11.6246 30.6097 11.5138 30.8413 11.5138C31.061 11.5138 31.2128 11.622 31.2403 11.7954H31.5255C31.5085 11.4786 31.2285 11.2557 30.8452 11.2557C30.4331 11.2557 30.1583 11.4786 30.1583 11.8137C30.1583 12.09 30.314 12.2543 30.6555 12.3338L30.8988 12.3925C31.1487 12.4512 31.2586 12.5372 31.2586 12.6806C31.2586 12.8475 31.0859 12.9687 30.8504 12.9687C30.5979 12.9687 30.4226 12.8553 30.3978 12.6767H30.1073Z" fill="white"/>
</svg>
