<svg width="32" height="31" viewBox="0 0 32 31" fill="none" xmlns="http://www.w3.org/2000/svg">
<path d="M16 18.4829C17.5149 18.4829 18.7429 17.1722 18.7429 15.5555C18.7429 13.9388 17.5149 12.6282 16 12.6282C14.4852 12.6282 13.2572 13.9388 13.2572 15.5555C13.2572 17.1722 14.4852 18.4829 16 18.4829Z" fill="#61DAFB"/>
<path fill-rule="evenodd" clip-rule="evenodd" d="M3.10904 14.0133C2.48792 14.6117 2.28238 15.1347 2.28238 15.5555C2.28238 15.9764 2.48792 16.4994 3.10904 17.0978C3.73006 17.6961 4.68484 18.2839 5.94977 18.7994C8.47275 19.8275 12.0258 20.4858 16 20.4858C19.9742 20.4858 23.5272 19.8275 26.0502 18.7994C27.3151 18.2839 28.2699 17.6961 28.8909 17.0978C29.5121 16.4994 29.7176 15.9764 29.7176 15.5555C29.7176 15.1347 29.5121 14.6117 28.8909 14.0133C28.2699 13.415 27.3151 12.8272 26.0502 12.3117C23.5272 11.2836 19.9742 10.6253 16 10.6253C12.0258 10.6253 8.47275 11.2836 5.94977 12.3117C4.68484 12.8272 3.73006 13.415 3.10904 14.0133ZM5.23637 10.3176C8.04011 9.17508 11.8459 8.49078 16 8.49078C20.1541 8.49078 23.9599 9.17508 26.7636 10.3176C28.1621 10.8875 29.3626 11.5921 30.2311 12.4288C31.0995 13.2655 31.7176 14.3203 31.7176 15.5555C31.7176 16.7908 31.0995 17.8456 30.2311 18.6823C29.3626 19.519 28.1621 20.2236 26.7636 20.7935C23.9599 21.936 20.1541 22.6203 16 22.6203C11.8459 22.6203 8.04011 21.936 5.23637 20.7935C3.83793 20.2236 2.63737 19.519 1.76888 18.6823C0.900506 17.8456 0.282379 16.7908 0.282379 15.5555C0.282379 14.3203 0.900506 13.2655 1.76888 12.4288C2.63737 11.5921 3.83793 10.8875 5.23637 10.3176Z" fill="#61DAFB"/>
<path fill-rule="evenodd" clip-rule="evenodd" d="M10.806 2.86949C10.0098 2.5946 9.48268 2.66611 9.14117 2.87655C8.79965 3.08699 8.47806 3.53845 8.30304 4.41176C8.12805 5.28491 8.12852 6.46128 8.34272 7.88817C8.76995 10.7342 10.0123 14.3473 11.9994 18.0207C13.9865 21.694 16.2972 24.6488 18.3929 26.4667C19.4437 27.3781 20.398 27.9668 21.194 28.2416C21.9901 28.5165 22.5173 28.445 22.8588 28.2345C23.2003 28.0241 23.5219 27.5726 23.6969 26.6993C23.8719 25.8262 23.8714 24.6498 23.6572 23.2229C23.23 20.3769 21.9877 16.7638 20.0005 13.0904C18.0134 9.41711 15.7028 6.46226 13.607 4.64437C12.5563 3.73294 11.602 3.14433 10.806 2.86949ZM14.8684 2.98791C17.1974 5.0081 19.6555 8.1836 21.7326 12.0232C23.8096 15.8627 25.1573 19.7225 25.632 22.8852C25.8688 24.4627 25.8974 25.9247 25.6527 27.1458C25.408 28.3667 24.8611 29.4655 23.8588 30.0831C22.8564 30.7008 21.6915 30.6568 20.5784 30.2725C19.4652 29.8882 18.2932 29.1308 17.1315 28.1232C14.8026 26.103 12.3444 22.9275 10.2674 19.0879C8.19032 15.2484 6.84268 11.3886 6.36791 8.22584C6.1311 6.64836 6.10256 5.18639 6.34728 3.96529C6.59197 2.74435 7.13881 1.64562 8.14117 1.02798C9.14353 0.410334 10.3085 0.454261 11.4216 0.838571C12.5348 1.22293 13.7068 1.98029 14.8684 2.98791Z" fill="#61DAFB"/>
<path fill-rule="evenodd" clip-rule="evenodd" d="M23.6969 4.41175C23.5219 3.53844 23.2003 3.08698 22.8588 2.87654C22.5173 2.66611 21.9902 2.5946 21.194 2.86948C20.398 3.14432 19.4437 3.73294 18.393 4.64436C16.2972 6.46226 13.9865 9.41711 11.9994 13.0904C10.0123 16.7638 8.76997 20.3769 8.34274 23.2229C8.12854 24.6498 8.12807 25.8262 8.30306 26.6993C8.47808 27.5726 8.79967 28.0241 9.14118 28.2345C9.48269 28.445 10.0098 28.5165 10.806 28.2416C11.602 27.9668 12.5563 27.3781 13.607 26.4667C15.7028 24.6488 18.0134 21.694 20.0006 18.0207C21.9877 14.3473 23.23 10.7342 23.6572 7.88816C23.8714 6.46127 23.8719 5.28491 23.6969 4.41175ZM25.6321 8.22584C25.1573 11.3886 23.8096 15.2484 21.7326 19.0879C19.6556 22.9275 17.1974 26.103 14.8684 28.1232C13.7068 29.1308 12.5348 29.8882 11.4216 30.2725C10.3085 30.6568 9.14354 30.7008 8.14118 30.0831C7.13882 29.4655 6.59199 28.3667 6.3473 27.1458C6.10258 25.9247 6.13112 24.4627 6.36792 22.8852C6.84269 19.7225 8.19033 15.8627 10.2674 12.0232C12.3444 8.1836 14.8026 5.0081 17.1315 2.98791C18.2932 1.98029 19.4652 1.22293 20.5784 0.838568C21.6915 0.454257 22.8564 0.41033 23.8588 1.02797C24.8612 1.64562 25.408 2.74434 25.6527 3.96529C25.8974 5.18639 25.8689 6.64835 25.6321 8.22584Z" fill="#61DAFB"/>
</svg>
