<svg width="32" height="19" viewBox="0 0 32 19" fill="none" xmlns="http://www.w3.org/2000/svg">
<path d="M16 0.555542C11.8517 0.555542 9.25921 2.55558 8.22204 6.55529C9.77779 4.55525 11.5926 3.80552 13.6666 4.30534C14.85 4.59052 15.6958 5.41868 16.6322 6.33502C18.1572 7.82774 19.9223 9.55535 23.778 9.55535C27.9259 9.55535 30.5188 7.55531 31.5556 3.55523C30.0002 5.55527 28.1854 6.30538 26.111 5.80556C24.928 5.52037 24.0822 4.69221 23.1458 3.77587C21.6208 2.28316 19.8553 0.555542 16 0.555542ZM8.22204 9.55535C4.07415 9.55535 1.48124 11.5554 0.444458 15.5555C1.99982 13.5554 3.81467 12.8053 5.889 13.3055C7.07205 13.5911 7.91782 14.4189 8.85422 15.3348C10.3792 16.8276 12.1447 18.5555 16 18.5555C20.1483 18.5555 22.7408 16.5555 23.778 12.5554C22.2222 14.5555 20.4074 15.3056 18.3334 14.8054C17.15 14.5206 16.3042 13.692 15.3678 12.7761C13.8428 11.2833 12.0778 9.55535 8.22204 9.55535Z" fill="#06B6D4"/>
</svg>
