<svg width="32" height="31" viewBox="0 0 32 31" fill="none" xmlns="http://www.w3.org/2000/svg">
<path d="M0.740454 11.017C0.740454 11.017 -0.0172959 10.4846 0.892004 9.77369L3.01055 7.92721C3.01055 7.92721 3.61675 7.30557 4.25768 7.8472L23.8076 22.2743V29.1924C23.8076 29.1924 23.7982 30.2787 22.3679 30.1587L0.740454 11.017Z" fill="#2489CA"/>
<path d="M5.7795 15.4763L0.740456 19.9417C0.740456 19.9417 0.22266 20.3171 0.740456 20.988L3.08001 23.0622C3.08001 23.0622 3.6357 23.6438 4.45659 22.9822L9.79874 19.0338L5.7795 15.4763Z" fill="#1070B3"/>
<path d="M14.6263 15.5132L23.8677 8.63507L23.8077 1.75387C23.8077 1.75387 23.413 0.25207 22.0964 1.03374L9.79874 11.9433L14.6263 15.5132Z" fill="#0877B9"/>
<path d="M22.3679 30.168C22.9047 30.7035 23.5551 30.5281 23.5551 30.5281L30.7569 27.069C31.6788 26.4566 31.5493 25.6965 31.5493 25.6965V5.04057C31.5493 4.13272 30.5958 3.81882 30.5958 3.81882L24.3539 0.886008C22.9899 0.0643274 22.0964 1.03374 22.0964 1.03374C22.0964 1.03374 23.2457 0.227452 23.8077 1.75387L23.8077 29.0663C23.8077 29.254 23.7666 29.4386 23.6845 29.6048C23.5204 29.928 23.1636 30.2295 22.308 30.1034L22.3679 30.168Z" fill="#3C99D4"/>
</svg>
